name Walk2.mot
datacolumns 19
datarows 17
range 1.31100000 1.32700000
endheader

                time	   L_ground_force_vx	   L_ground_force_vy	   L_ground_force_vz	   L_ground_force_px	   L_ground_force_py	   L_ground_force_pz	   R_ground_force_vx	   R_ground_force_vy	   R_ground_force_vz	   R_ground_force_px	   R_ground_force_py	   R_ground_force_pz	   L_ground_torque_x	   L_ground_torque_y	   L_ground_torque_z	   R_ground_torque_x	   R_ground_torque_y	   R_ground_torque_z	
          1.31100000	          0.00000000	          0.00000000	          0.00000000	          0.00000000	          0.00000000	          0.00000000	          0.00000000	          0.00000000	          0.00000000	          0.00000000	          0.00000000	          0.00000000	          0.00000000	          0.00000000	          0.00000000	          0.00000000	          0.00000000	          0.00000000	
          1.31200000	          0.00000000	          0.00000000	          0.00000000	          0.00000000	          0.00000000	          0.00000000	          0.00000000	          0.00000000	          0.00000000	          0.00000000	          0.00000000	          0.00000000	          0.00000000	          0.00000000	          0.00000000	          0.00000000	          0.00000000	          0.00000000	
          1.31300000	          0.00000000	          0.00000000	          0.00000000	          0.00000000	          0.00000000	          0.00000000	          0.00000000	          0.00000000	          0.00000000	          0.00000000	          0.00000000	          0.00000000	          0.00000000	          0.00000000	          0.00000000	          0.00000000	          0.00000000	          0.00000000	
          1.31400000	          0.00000000	          0.00000000	          0.00000000	          0.00000000	          0.00000000	          0.00000000	         -0.50320874	         15.45817012	         -3.19562392	         -0.38386878	          0.00000000	         -0.04029235	          0.00000000	          0.00000000	          0.00000000	          0.00000000	         -0.01501618	          0.00000000	
          1.31500000	          0.00000000	          0.00000000	          0.00000000	          0.00000000	          0.00000000	          0.00000000	         -0.29600319	         24.99460465	         -4.58473452	         -0.38172252	          0.00000000	         -0.04039832	          0.00000000	          0.00000000	          0.00000000	          0.00000000	         -0.01011121	          0.00000000	
          1.31600000	          0.00000000	          0.00000000	          0.00000000	          0.00000000	          0.00000000	          0.00000000	          0.24146425	         37.23752173	         -6.02712341	         -0.37994266	          0.00000000	         -0.04140123	          0.00000000	          0.00000000	          0.00000000	          0.00000000	          0.00235291	          0.00000000	
          1.31700000	          0.00000000	          0.00000000	          0.00000000	          0.00000000	          0.00000000	          0.00000000	          1.17289015	         52.62017013	         -7.50079404	         -0.37864036	          0.00000000	         -0.04286220	          0.00000000	          0.00000000	          0.00000000	          0.00000000	          0.02345246	          0.00000000	
          1.31800000	          0.00000000	          0.00000000	          0.00000000	          0.00000000	          0.00000000	          0.00000000	          2.57272349	         71.43363051	         -8.98915789	         -0.37779594	          0.00000000	         -0.04421715	          0.00000000	          0.00000000	          0.00000000	          0.00000000	          0.05020216	          0.00000000	
          1.31900000	          0.00000000	          0.00000000	          0.00000000	          0.00000000	          0.00000000	          0.00000000	          4.52352443	         93.46644470	        -10.43922837	         -0.37733090	          0.00000000	         -0.04513284	          0.00000000	          0.00000000	          0.00000000	          0.00000000	          0.07384380	          0.00000000	
          1.32000000	          0.00000000	          0.00000000	          0.00000000	          0.00000000	          0.00000000	          0.00000000	          7.07306605	        117.77805038	        -11.76079968	         -0.37716905	          0.00000000	         -0.04554094	          0.00000000	          0.00000000	          0.00000000	          0.00000000	          0.08456280	          0.00000000	
          1.32100000	          0.00000000	          0.00000000	          0.00000000	          0.00000000	          0.00000000	          0.00000000	         10.18074977	        142.74782690	        -12.85988120	         -0.37721497	          0.00000000	         -0.04555145	          0.00000000	          0.00000000	          0.00000000	          0.00000000	          0.07898574	          0.00000000	
          1.32200000	          0.00000000	          0.00000000	          0.00000000	          0.00000000	          0.00000000	          0.00000000	         13.70040960	        166.44888839	        -13.67853320	         -0.37735661	          0.00000000	         -0.04532000	          0.00000000	          0.00000000	          0.00000000	          0.00000000	          0.06218451	          0.00000000	
          1.32300000	          0.00000000	          0.00000000	          0.00000000	          0.00000000	          0.00000000	          0.00000000	         17.40500836	        187.17768922	        -14.21694063	         -0.37751447	          0.00000000	         -0.04496197	          0.00000000	          0.00000000	          0.00000000	          0.00000000	          0.04306573	          0.00000000	
          1.32400000	          0.00000000	          0.00000000	          0.00000000	          0.00000000	          0.00000000	          0.00000000	         21.02741103	        203.87483247	        -14.54106330	         -0.37764906	          0.00000000	         -0.04457763	          0.00000000	          0.00000000	          0.00000000	          0.00000000	          0.03059032	          0.00000000	
          1.32500000	          0.00000000	          0.00000000	          0.00000000	          0.00000000	          0.00000000	          0.00000000	         24.31287908	        216.25073901	        -14.76842752	         -0.37770963	          0.00000000	         -0.04427934	          0.00000000	          0.00000000	          0.00000000	          0.00000000	          0.03205030	          0.00000000	
          1.32600000	          0.00000000	          0.00000000	          0.00000000	          0.00000000	          0.00000000	          0.00000000	         27.06864749	        224.60369706	        -15.02257602	         -0.37762860	          0.00000000	         -0.04414466	          0.00000000	          0.00000000	          0.00000000	          0.00000000	          0.05031039	          0.00000000	
          1.32700000	          0.00000000	          0.00000000	          0.00000000	          0.00000000	          0.00000000	          0.00000000	         29.17769604	        229.50459977	        -15.38566290	         -0.37738209	          0.00000000	         -0.04417724	          0.00000000	          0.00000000	          0.00000000	          0.00000000	          0.08207408	          0.00000000	
